<svg xmlns="http://www.w3.org/2000/svg" xmlns:xlink="http://www.w3.org/1999/xlink" width="500" zoomAndPan="magnify" viewBox="0 0 375 374.999991" height="500" preserveAspectRatio="xMidYMid meet" version="1.0"><defs><g/><clipPath id="1c06ecab83"><path d="M 158 88 L 280 88 L 280 281.917969 L 158 281.917969 Z M 158 88 " clip-rule="nonzero"/></clipPath><clipPath id="675cf30328"><path d="M 69.757812 185.449219 L 203.292969 185.449219 L 203.292969 236.167969 L 69.757812 236.167969 Z M 69.757812 185.449219 " clip-rule="nonzero"/></clipPath><clipPath id="172c5faa6f"><path d="M 87.007812 185.449219 L 185.929688 185.449219 C 195.457031 185.449219 203.179688 193.171875 203.179688 202.699219 L 203.179688 218.917969 C 203.179688 228.445312 195.457031 236.167969 185.929688 236.167969 L 87.007812 236.167969 C 77.480469 236.167969 69.757812 228.445312 69.757812 218.917969 L 69.757812 202.699219 C 69.757812 193.171875 77.480469 185.449219 87.007812 185.449219 Z M 87.007812 185.449219 " clip-rule="nonzero"/></clipPath></defs><g clip-path="url(#1c06ecab83)"><path fill="#02a4d2" d="M 181.761719 93.15625 C 187.683594 93.15625 195.738281 91.300781 202.59375 90.941406 C 223.683594 89.808594 245.316406 93.449219 257.679688 109.914062 C 273.605469 131.136719 265.832031 165.070312 254.15625 186.570312 C 241.378906 210.089844 226.78125 224.113281 207.527344 238.542969 C 202.511719 242.300781 200.148438 245.070312 195.6875 245.644531 C 191.800781 241.726562 186.40625 239.296875 180.453125 239.296875 C 168.59375 239.296875 158.984375 248.910156 158.984375 260.765625 C 158.984375 272.625 168.59375 282.234375 180.453125 282.234375 C 192.226562 282.234375 201.789062 272.738281 201.902344 260.980469 C 203.050781 260.308594 204.609375 259.421875 206.839844 258.109375 C 212.269531 254.929688 217.449219 251.78125 221.863281 248.484375 L 235.394531 237.363281 C 272.867188 205.546875 299.894531 139.765625 260.09375 103.078125 C 232.800781 77.917969 191.09375 92.910156 181.761719 93.15625 Z M 181.761719 93.15625 " fill-opacity="1" fill-rule="evenodd"/></g><path fill="#2f80ed" d="M 172.792969 235.328125 C 162.082031 228.933594 156.539062 228.738281 141.992188 217.667969 C 110.078125 193.425781 91.789062 150.292969 116.835938 117.902344 C 136.070312 93.007812 178.992188 109.71875 186.945312 119.902344 C 188.109375 121.414062 188.863281 123.199219 189.40625 125.152344 C 188.535156 127.480469 188.0625 129.988281 188.0625 132.613281 C 188.0625 144.472656 197.671875 154.082031 209.53125 154.082031 C 221.386719 154.082031 230.996094 144.472656 230.996094 132.613281 C 230.996094 120.757812 221.386719 111.144531 209.53125 111.144531 C 207.628906 111.144531 205.773438 111.390625 204.019531 111.867188 C 202.328125 111.0625 200.097656 109.867188 197 108.0625 C 186.40625 101.894531 176.089844 96.074219 161.902344 93.84375 C 145.667969 91.285156 134.136719 93.136719 121.789062 99.976562 C 75.09375 125.90625 89.050781 178.648438 123.902344 210.253906 C 133.941406 219.371094 160.3125 232.769531 172.792969 235.328125 Z M 172.792969 235.328125 " fill-opacity="1" fill-rule="evenodd"/><path fill="#02a4d2" d="M 148.027344 149.589844 C 124.527344 149.589844 128.871094 144.71875 129.035156 168.957031 L 148.011719 169.367188 L 148.027344 188.34375 L 167.742188 188.308594 L 167.742188 169.695312 L 186.699219 169.285156 L 186.75 149.652344 L 167.9375 149.554688 L 167.726562 130.613281 L 148.027344 130.613281 Z M 148.027344 149.589844 " fill-opacity="1" fill-rule="evenodd"/><g clip-path="url(#675cf30328)"><g clip-path="url(#172c5faa6f)"><path fill="#ffffff" d="M 69.757812 185.449219 L 203.09375 185.449219 L 203.09375 236.167969 L 69.757812 236.167969 Z M 69.757812 185.449219 " fill-opacity="1" fill-rule="nonzero"/></g></g><path stroke-linecap="butt" transform="matrix(0.946717, 0, 0, 0.946717, 69.130723, 183.760682)" fill="none" stroke-linejoin="miter" d="M 53.579651 14.252654 C 53.579651 14.372311 53.559021 14.496094 53.521886 14.628129 C 53.488877 14.756038 53.414607 14.879821 53.307328 14.999478 C 52.95661 15.420341 52.519243 15.795816 52.007606 16.13003 C 51.495969 16.460119 50.95545 16.720063 50.381921 16.905738 C 49.812519 17.087286 49.251369 17.17806 48.690219 17.17806 C 47.51428 17.17806 46.491007 16.930494 45.628651 16.431236 C 44.766296 15.931977 44.101993 15.23054 43.631617 14.335176 C 43.165368 13.435685 42.942558 12.395907 42.963189 11.219968 C 42.963189 10.068785 43.206629 9.062016 43.689383 8.195535 C 44.168011 7.333179 44.844692 6.664751 45.711173 6.181997 C 46.581781 5.699243 47.592676 5.459929 48.743859 5.459929 C 49.527818 5.459929 50.303525 5.600216 51.070981 5.889043 C 51.838436 6.173744 52.486234 6.594607 53.010249 7.151631 C 53.257815 7.411575 53.36922 7.675646 53.344463 7.93559 C 53.319707 8.195535 53.208302 8.410092 53.014375 8.57101 C 52.816322 8.731928 52.581134 8.806198 52.304685 8.79382 C 52.02411 8.781441 51.755914 8.641154 51.491843 8.368831 C 51.112242 7.960347 50.683127 7.667394 50.200373 7.489971 C 49.717619 7.312549 49.230739 7.221775 48.743859 7.221775 C 48.005286 7.221775 47.353362 7.390945 46.788086 7.733411 C 46.226936 8.071752 45.789569 8.546254 45.475985 9.152791 C 45.170654 9.759328 45.017988 10.464891 45.017988 11.273607 C 45.02624 12.069945 45.187158 12.779635 45.496616 13.39855 C 45.806073 14.017466 46.235188 14.50022 46.788086 14.850939 C 47.34511 15.201657 47.984656 15.374954 48.71085 15.374954 C 49.230739 15.374954 49.750628 15.259423 50.270517 15.032487 C 50.786279 14.797299 51.215394 14.479589 51.561987 14.071105 L 51.561987 12.251494 L 48.958416 12.251494 C 48.624202 12.251494 48.376635 12.164846 48.215717 11.987423 C 48.058926 11.810001 47.976404 11.611948 47.976404 11.397391 C 47.976404 11.162203 48.058926 10.951771 48.215717 10.766097 C 48.376635 10.580422 48.624202 10.489648 48.958416 10.489648 L 52.506864 10.489648 C 52.927727 10.489648 53.208302 10.580422 53.356841 10.757845 C 53.505381 10.935267 53.579651 11.166329 53.579651 11.45103 Z M 66.663523 15.214036 C 66.977107 15.214036 67.216421 15.313062 67.389717 15.511115 C 67.558887 15.709168 67.645535 15.919599 67.645535 16.142409 C 67.645535 16.356966 67.567139 16.555019 67.406221 16.732441 C 67.245303 16.909864 66.997737 17.000638 66.663523 17.000638 L 59.583131 17.000638 C 59.22416 17.000638 58.939459 16.897485 58.724901 16.69118 C 58.51447 16.480749 58.407191 16.229057 58.407191 15.927851 L 58.407191 6.689507 C 58.407191 6.404806 58.51447 6.15724 58.724901 5.950935 C 58.939459 5.740504 59.22416 5.637351 59.583131 5.637351 L 66.663523 5.637351 C 66.985359 5.637351 67.224673 5.723999 67.377339 5.897296 C 67.534131 6.070592 67.6084 6.268645 67.6084 6.491454 C 67.6084 6.706012 67.530004 6.908191 67.369086 7.097991 C 67.212295 7.287792 66.977107 7.382693 66.663523 7.382693 L 60.44136 7.382693 L 60.44136 10.506152 L 66.341687 10.506152 C 66.655271 10.506152 66.886332 10.596927 67.038998 10.786727 C 67.191664 10.968276 67.27006 11.170455 67.27006 11.397391 C 67.27006 11.611948 67.191664 11.810001 67.038998 11.987423 C 66.886332 12.164846 66.655271 12.251494 66.341687 12.251494 L 60.44136 12.251494 L 60.44136 15.214036 Z M 81.232792 15.255297 C 81.505114 15.539998 81.63715 15.81232 81.624771 16.080517 C 81.612393 16.348714 81.509241 16.567397 81.31944 16.74482 C 81.129639 16.91399 80.90683 17.004764 80.651011 17.00889 C 80.395193 17.013016 80.155879 16.897485 79.928943 16.662298 L 76.73534 13.254137 L 74.045121 13.254137 L 74.045121 16.072265 C 74.045121 16.369344 73.933716 16.59628 73.715032 16.761324 C 73.492223 16.918116 73.257035 17.000638 73.009469 17.000638 C 72.745398 17.000638 72.51021 16.922242 72.295653 16.769576 C 72.081096 16.61691 71.973817 16.389975 71.973817 16.088769 L 71.973817 6.565724 C 71.973817 6.293401 72.072844 6.070592 72.26677 5.897296 C 72.464823 5.723999 72.712389 5.637351 73.009469 5.637351 L 76.987032 5.637351 C 78.055693 5.637351 78.946931 5.810647 79.664873 6.153114 C 80.378688 6.49558 80.910956 6.96183 81.2658 7.543611 C 81.624771 8.129517 81.802194 8.777315 81.802194 9.491131 C 81.802194 10.320478 81.579384 11.050798 81.129639 11.673839 C 80.688146 12.296881 80.007339 12.738374 79.091344 13.002444 Z M 74.045121 11.5253 L 77.007662 11.5253 C 77.956666 11.5253 78.649851 11.327247 79.087218 10.927015 C 79.528711 10.526783 79.739142 10.056407 79.714386 9.507635 C 79.702008 8.913477 79.458567 8.418344 78.984066 8.026365 C 78.509564 7.634385 77.849387 7.440458 77.007662 7.440458 L 74.045121 7.440458 Z M 94.122737 15.214036 C 94.432194 15.214036 94.675634 15.313062 94.844805 15.511115 C 95.018101 15.709168 95.104749 15.919599 95.104749 16.142409 C 95.104749 16.356966 95.022227 16.555019 94.865435 16.732441 C 94.704517 16.909864 94.456951 17.000638 94.122737 17.000638 L 87.042344 17.000638 C 86.683373 17.000638 86.398672 16.897485 86.184115 16.69118 C 85.969558 16.480749 85.866405 16.229057 85.866405 15.927851 L 85.866405 6.689507 C 85.866405 6.404806 85.969558 6.15724 86.184115 5.950935 C 86.398672 5.740504 86.683373 5.637351 87.042344 5.637351 L 94.122737 5.637351 C 94.444573 5.637351 94.683887 5.723999 94.836552 5.897296 C 94.993344 6.070592 95.067614 6.268645 95.067614 6.491454 C 95.067614 6.706012 94.989218 6.908191 94.8283 7.097991 C 94.667382 7.287792 94.432194 7.382693 94.122737 7.382693 L 87.900574 7.382693 L 87.900574 10.506152 L 93.800901 10.506152 C 94.110358 10.506152 94.345546 10.596927 94.498212 10.786727 C 94.650878 10.968276 94.729274 11.170455 94.729274 11.397391 C 94.729274 11.611948 94.650878 11.810001 94.498212 11.987423 C 94.345546 12.164846 94.110358 12.251494 93.800901 12.251494 L 87.900574 12.251494 L 87.900574 15.214036 Z M 106.996177 6.512085 C 106.996177 6.223258 107.111708 6.0087 107.34277 5.860161 C 107.577958 5.711621 107.821398 5.637351 108.085468 5.637351 C 108.357791 5.637351 108.597105 5.703369 108.807536 5.83953 C 109.017967 5.979818 109.12112 6.202627 109.12112 6.512085 L 109.12112 15.927851 C 109.12112 16.286822 108.997337 16.555019 108.745645 16.732441 C 108.498079 16.909864 108.22163 17.000638 107.92455 17.000638 C 107.722371 17.000638 107.524318 16.951125 107.326265 16.856224 C 107.128212 16.761324 106.971421 16.637541 106.85589 16.480749 L 101.39293 9.453996 L 101.467199 10.452513 L 101.467199 16.055761 C 101.467199 16.389975 101.359921 16.629289 101.137111 16.777828 C 100.918428 16.926368 100.674988 17.000638 100.415043 17.000638 C 100.14272 17.000638 99.895154 16.926368 99.672345 16.777828 C 99.453661 16.629289 99.342257 16.389975 99.342257 16.055761 L 99.342257 6.726642 C 99.342257 6.367671 99.453661 6.099475 99.672345 5.9138 C 99.895154 5.728125 100.146847 5.637351 100.431548 5.637351 C 100.658483 5.637351 100.85241 5.682738 101.009202 5.773512 C 101.17012 5.860161 101.322786 5.992196 101.467199 6.173744 L 107.070447 13.45219 L 106.996177 12.251494 Z M 119.139298 5.459929 C 120.018157 5.459929 120.835126 5.587838 121.58195 5.851908 C 122.332901 6.111853 122.997204 6.56985 123.578984 7.221775 C 123.814172 7.498223 123.921451 7.762294 123.892568 8.00986 C 123.863685 8.261552 123.748154 8.463731 123.550101 8.616397 C 123.356175 8.769063 123.125113 8.839207 122.85279 8.830955 C 122.588719 8.818576 122.337027 8.686541 122.101839 8.438975 C 121.660346 7.947969 121.194097 7.634385 120.698964 7.489971 C 120.203832 7.349684 119.679817 7.27954 119.122793 7.27954 C 118.367716 7.27954 117.711666 7.444584 117.14639 7.770546 C 116.581114 8.096508 116.139621 8.55038 115.826037 9.13216 C 115.512453 9.713941 115.355661 10.398874 115.355661 11.186959 C 115.355661 12.016306 115.512453 12.746626 115.834289 13.382046 C 116.156125 14.009214 116.60587 14.50022 117.183525 14.842686 C 117.761179 15.185153 118.43786 15.358449 119.209441 15.358449 C 119.766465 15.358449 120.323489 15.214036 120.884639 14.929334 C 121.445789 14.644633 121.891408 14.302167 122.221496 13.893683 C 122.46081 13.608982 122.720755 13.448064 122.997204 13.406803 C 123.277779 13.361415 123.525345 13.410929 123.73165 13.551216 C 123.937955 13.687378 124.061738 13.881304 124.102999 14.128871 C 124.148386 14.380563 124.061738 14.657012 123.847181 14.966469 C 123.525345 15.420341 123.108608 15.81232 122.596972 16.146535 C 122.085335 16.476623 121.532437 16.732441 120.938278 16.91399 C 120.34412 17.091412 119.754087 17.17806 119.172306 17.17806 C 117.996367 17.17806 116.964841 16.930494 116.085981 16.431236 C 115.207122 15.931977 114.522189 15.23054 114.035308 14.335176 C 113.548428 13.435685 113.300862 12.383529 113.300862 11.186959 C 113.300862 10.031651 113.556681 9.024881 114.068317 8.170778 C 114.579954 7.316675 115.277265 6.648246 116.164377 6.173744 C 117.05149 5.695117 118.04588 5.459929 119.139298 5.459929 Z M 127.762852 6.598733 C 127.762852 6.264519 127.870131 6.021079 128.084688 5.868413 C 128.299246 5.711621 128.53856 5.637351 128.798504 5.637351 C 129.062575 5.637351 129.301889 5.711621 129.520572 5.868413 C 129.743382 6.021079 129.854786 6.264519 129.854786 6.598733 L 129.854786 16.088769 C 129.854786 16.389975 129.743382 16.61691 129.520572 16.769576 C 129.301889 16.922242 129.062575 17.000638 128.798504 17.000638 C 128.53856 17.000638 128.299246 16.926368 128.084688 16.777828 C 127.870131 16.629289 127.762852 16.402353 127.762852 16.088769 Z M 138.890951 5.459929 C 139.084878 5.459929 139.262301 5.497064 139.427345 5.57546 C 139.596515 5.649729 139.720298 5.777639 139.80282 5.959187 L 144.849044 15.857708 C 145.005836 16.121778 145.051223 16.348714 144.976953 16.546767 C 144.906809 16.740694 144.770648 16.897485 144.568469 17.00889 C 144.362164 17.120295 144.147606 17.17806 143.920671 17.17806 C 143.755626 17.17806 143.586456 17.132673 143.41316 17.041899 C 143.239864 16.955251 143.107828 16.827342 143.017054 16.662298 L 141.766845 14.18251 L 136.02331 14.18251 L 134.773101 16.662298 C 134.690579 16.852098 134.56267 16.984134 134.389373 17.06253 C 134.216077 17.140926 134.046907 17.17806 133.877737 17.17806 C 133.679684 17.17806 133.481631 17.120295 133.283578 17.00889 C 133.089651 16.897485 132.945237 16.740694 132.854463 16.546767 C 132.763689 16.348714 132.776067 16.138283 132.883346 15.911347 L 137.962578 5.959187 C 138.061605 5.757008 138.181262 5.620847 138.329801 5.558955 C 138.482467 5.492937 138.668142 5.459929 138.890951 5.459929 Z M 138.890951 8.471984 L 136.898044 12.453673 L 140.892111 12.453673 Z M 152.923827 5.637351 C 154.008992 5.637351 154.953869 5.876665 155.758459 6.351167 C 156.571302 6.825669 157.198469 7.489971 157.648214 8.339948 C 158.102086 9.189926 158.329021 10.184316 158.329021 11.323121 C 158.329021 12.457799 158.102086 13.45219 157.648214 14.306293 C 157.198469 15.160396 156.571302 15.824699 155.758459 16.295074 C 154.953869 16.76545 154.008992 17.000638 152.923827 17.000638 L 149.251595 17.000638 C 148.929759 17.000638 148.65331 16.897485 148.422249 16.69118 C 148.187061 16.480749 148.07153 16.233183 148.07153 15.944356 L 148.07153 6.668877 C 148.07153 6.384176 148.187061 6.140736 148.422249 5.942683 C 148.65331 5.736378 148.929759 5.637351 149.251595 5.637351 Z M 152.923827 15.23054 C 153.592255 15.23054 154.178162 15.069622 154.685673 14.74366 C 155.189057 14.417698 155.581037 13.9597 155.861612 13.382046 C 156.138061 12.796139 156.278348 12.111206 156.278348 11.323121 C 156.278348 10.539161 156.138061 9.854228 155.861612 9.260069 C 155.581037 8.665911 155.189057 8.203787 154.685673 7.873699 C 154.178162 7.547737 153.592255 7.382693 152.923827 7.382693 L 150.105699 7.382693 L 150.105699 15.23054 Z M 173.595602 11.323121 C 173.595602 12.490808 173.356288 13.514081 172.873534 14.397067 C 172.39078 15.275927 171.714099 15.96086 170.847617 16.44774 C 169.977009 16.93462 168.961988 17.17806 167.798427 17.17806 C 166.63074 17.17806 165.607467 16.93462 164.728607 16.44774 C 163.849747 15.96086 163.164814 15.275927 162.677934 14.397067 C 162.186927 13.514081 161.943487 12.490808 161.943487 11.323121 C 161.943487 10.147181 162.186927 9.119782 162.677934 8.240922 C 163.164814 7.362062 163.849747 6.677129 164.728607 6.190249 C 165.607467 5.703369 166.63074 5.459929 167.798427 5.459929 C 168.961988 5.459929 169.977009 5.703369 170.847617 6.190249 C 171.714099 6.677129 172.39078 7.362062 172.873534 8.240922 C 173.356288 9.119782 173.595602 10.147181 173.595602 11.323121 Z M 167.798427 15.358449 C 168.549378 15.358449 169.197176 15.189279 169.750074 14.850939 C 170.302972 14.512598 170.736212 14.038096 171.041544 13.431559 C 171.355128 12.825022 171.507794 12.123585 171.507794 11.323121 C 171.507794 10.518531 171.355128 9.808841 171.041544 9.202304 C 170.736212 8.595767 170.302972 8.125391 169.750074 7.787051 C 169.197176 7.44871 168.549378 7.27954 167.798427 7.27954 C 167.047476 7.27954 166.391426 7.44871 165.82615 7.787051 C 165.260874 8.125391 164.819381 8.595767 164.509923 9.202304 C 164.200466 9.808841 164.0478 10.518531 164.0478 11.323121 C 164.0478 12.123585 164.200466 12.825022 164.509923 13.431559 C 164.819381 14.038096 165.260874 14.512598 165.82615 14.850939 C 166.391426 15.189279 167.047476 15.358449 167.798427 15.358449 Z M 187.302515 15.255297 C 187.578964 15.539998 187.710999 15.81232 187.694495 16.080517 C 187.682116 16.348714 187.58309 16.567397 187.389163 16.74482 C 187.203488 16.91399 186.980679 17.004764 186.72486 17.00889 C 186.469042 17.013016 186.225602 16.897485 186.002792 16.662298 L 182.809189 13.254137 L 180.114844 13.254137 L 180.114844 16.072265 C 180.114844 16.369344 180.007565 16.59628 179.784756 16.761324 C 179.566072 16.918116 179.330884 17.000638 179.079192 17.000638 C 178.819248 17.000638 178.579934 16.922242 178.365376 16.769576 C 178.154945 16.61691 178.047666 16.389975 178.047666 16.088769 L 178.047666 6.565724 C 178.047666 6.293401 178.146693 6.070592 178.34062 5.897296 C 178.538673 5.723999 178.782113 5.637351 179.079192 5.637351 L 183.060881 5.637351 C 184.129542 5.637351 185.02078 5.810647 185.734596 6.153114 C 186.448412 6.49558 186.984805 6.96183 187.33965 7.543611 C 187.694495 8.129517 187.871917 8.777315 187.871917 9.491131 C 187.871917 10.320478 187.649107 11.050798 187.203488 11.673839 C 186.757869 12.296881 186.081188 12.738374 185.165194 13.002444 Z M 180.114844 11.5253 L 183.077386 11.5253 C 184.026389 11.5253 184.723701 11.327247 185.161067 10.927015 C 185.60256 10.526783 185.808866 10.056407 185.788235 9.507635 C 185.775857 8.913477 185.532417 8.418344 185.053789 8.026365 C 184.579287 7.634385 183.919111 7.440458 183.077386 7.440458 L 180.114844 7.440458 Z M 180.114844 11.5253 " stroke="#ffffff" stroke-width="4.683079" stroke-opacity="1" stroke-miterlimit="4"/><g fill="#1f2b5b" fill-opacity="1"><g transform="translate(109.484519, 199.854865)"><g><path d="M 10.375 -2.59375 C 10.375 -2.488281 10.351562 -2.375 10.3125 -2.25 C 10.28125 -2.125 10.21875 -2.003906 10.125 -1.890625 C 9.78125 -1.492188 9.363281 -1.140625 8.875 -0.828125 C 8.394531 -0.515625 7.882812 -0.269531 7.34375 -0.09375 C 6.800781 0.0820312 6.269531 0.171875 5.75 0.171875 C 4.632812 0.171875 3.664062 -0.0625 2.84375 -0.53125 C 2.03125 -1.007812 1.398438 -1.671875 0.953125 -2.515625 C 0.503906 -3.367188 0.296875 -4.351562 0.328125 -5.46875 C 0.328125 -6.5625 0.550781 -7.515625 1 -8.328125 C 1.457031 -9.148438 2.097656 -9.785156 2.921875 -10.234375 C 3.742188 -10.691406 4.703125 -10.921875 5.796875 -10.921875 C 6.535156 -10.921875 7.269531 -10.785156 8 -10.515625 C 8.726562 -10.253906 9.335938 -9.859375 9.828125 -9.328125 C 10.066406 -9.078125 10.175781 -8.828125 10.15625 -8.578125 C 10.132812 -8.328125 10.03125 -8.125 9.84375 -7.96875 C 9.65625 -7.820312 9.425781 -7.753906 9.15625 -7.765625 C 8.894531 -7.773438 8.640625 -7.910156 8.390625 -8.171875 C 8.035156 -8.554688 7.628906 -8.832031 7.171875 -9 C 6.710938 -9.164062 6.253906 -9.25 5.796875 -9.25 C 5.097656 -9.25 4.476562 -9.085938 3.9375 -8.765625 C 3.40625 -8.453125 2.992188 -8.007812 2.703125 -7.4375 C 2.410156 -6.863281 2.265625 -6.191406 2.265625 -5.421875 C 2.273438 -4.671875 2.425781 -4 2.71875 -3.40625 C 3.007812 -2.820312 3.414062 -2.363281 3.9375 -2.03125 C 4.46875 -1.695312 5.078125 -1.53125 5.765625 -1.53125 C 6.253906 -1.53125 6.742188 -1.640625 7.234375 -1.859375 C 7.722656 -2.085938 8.132812 -2.390625 8.46875 -2.765625 L 8.46875 -4.5 L 6 -4.5 C 5.675781 -4.5 5.4375 -4.582031 5.28125 -4.75 C 5.132812 -4.914062 5.0625 -5.097656 5.0625 -5.296875 C 5.0625 -5.523438 5.132812 -5.726562 5.28125 -5.90625 C 5.4375 -6.082031 5.675781 -6.171875 6 -6.171875 L 9.359375 -6.171875 C 9.753906 -6.171875 10.019531 -6.082031 10.15625 -5.90625 C 10.300781 -5.738281 10.375 -5.519531 10.375 -5.25 Z M 10.375 -2.59375 "/></g></g></g><g fill="#1f2b5b" fill-opacity="1"><g transform="translate(123.444243, 199.854865)"><g><path d="M 8.796875 -1.6875 C 9.085938 -1.6875 9.316406 -1.59375 9.484375 -1.40625 C 9.648438 -1.21875 9.734375 -1.019531 9.734375 -0.8125 C 9.734375 -0.601562 9.65625 -0.414062 9.5 -0.25 C 9.34375 -0.0820312 9.109375 0 8.796875 0 L 2.09375 0 C 1.757812 0 1.488281 -0.0976562 1.28125 -0.296875 C 1.082031 -0.492188 0.984375 -0.734375 0.984375 -1.015625 L 0.984375 -9.765625 C 0.984375 -10.035156 1.082031 -10.269531 1.28125 -10.46875 C 1.488281 -10.664062 1.757812 -10.765625 2.09375 -10.765625 L 8.796875 -10.765625 C 9.097656 -10.765625 9.320312 -10.679688 9.46875 -10.515625 C 9.613281 -10.347656 9.6875 -10.160156 9.6875 -9.953125 C 9.6875 -9.742188 9.609375 -9.550781 9.453125 -9.375 C 9.304688 -9.195312 9.085938 -9.109375 8.796875 -9.109375 L 2.90625 -9.109375 L 2.90625 -6.140625 L 8.5 -6.140625 C 8.789062 -6.140625 9.007812 -6.050781 9.15625 -5.875 C 9.300781 -5.707031 9.375 -5.515625 9.375 -5.296875 C 9.375 -5.097656 9.300781 -4.914062 9.15625 -4.75 C 9.007812 -4.582031 8.789062 -4.5 8.5 -4.5 L 2.90625 -4.5 L 2.90625 -1.6875 Z M 8.796875 -1.6875 "/></g></g></g><g fill="#1f2b5b" fill-opacity="1"><g transform="translate(136.290013, 199.854865)"><g><path d="M 9.75 -1.65625 C 10.007812 -1.382812 10.128906 -1.117188 10.109375 -0.859375 C 10.097656 -0.609375 10.003906 -0.398438 9.828125 -0.234375 C 9.648438 -0.078125 9.4375 0 9.1875 0 C 8.945312 0.0078125 8.722656 -0.0976562 8.515625 -0.328125 L 5.484375 -3.546875 L 2.9375 -3.546875 L 2.9375 -0.875 C 2.9375 -0.59375 2.832031 -0.375 2.625 -0.21875 C 2.414062 -0.0703125 2.191406 0 1.953125 0 C 1.710938 0 1.488281 -0.0703125 1.28125 -0.21875 C 1.082031 -0.363281 0.984375 -0.578125 0.984375 -0.859375 L 0.984375 -9.875 C 0.984375 -10.132812 1.070312 -10.347656 1.25 -10.515625 C 1.4375 -10.679688 1.671875 -10.765625 1.953125 -10.765625 L 5.71875 -10.765625 C 6.738281 -10.765625 7.582031 -10.597656 8.25 -10.265625 C 8.925781 -9.941406 9.429688 -9.503906 9.765625 -8.953125 C 10.109375 -8.398438 10.28125 -7.785156 10.28125 -7.109375 C 10.28125 -6.316406 10.066406 -5.625 9.640625 -5.03125 C 9.222656 -4.445312 8.582031 -4.03125 7.71875 -3.78125 Z M 2.9375 -5.1875 L 5.75 -5.1875 C 6.644531 -5.1875 7.300781 -5.375 7.71875 -5.75 C 8.132812 -6.125 8.332031 -6.570312 8.3125 -7.09375 C 8.300781 -7.65625 8.066406 -8.117188 7.609375 -8.484375 C 7.160156 -8.859375 6.539062 -9.046875 5.75 -9.046875 L 2.9375 -9.046875 Z M 2.9375 -5.1875 "/></g></g></g><g fill="#1f2b5b" fill-opacity="1"><g transform="translate(149.43959, 199.854865)"><g><path d="M 8.796875 -1.6875 C 9.085938 -1.6875 9.316406 -1.59375 9.484375 -1.40625 C 9.648438 -1.21875 9.734375 -1.019531 9.734375 -0.8125 C 9.734375 -0.601562 9.65625 -0.414062 9.5 -0.25 C 9.34375 -0.0820312 9.109375 0 8.796875 0 L 2.09375 0 C 1.757812 0 1.488281 -0.0976562 1.28125 -0.296875 C 1.082031 -0.492188 0.984375 -0.734375 0.984375 -1.015625 L 0.984375 -9.765625 C 0.984375 -10.035156 1.082031 -10.269531 1.28125 -10.46875 C 1.488281 -10.664062 1.757812 -10.765625 2.09375 -10.765625 L 8.796875 -10.765625 C 9.097656 -10.765625 9.320312 -10.679688 9.46875 -10.515625 C 9.613281 -10.347656 9.6875 -10.160156 9.6875 -9.953125 C 9.6875 -9.742188 9.609375 -9.550781 9.453125 -9.375 C 9.304688 -9.195312 9.085938 -9.109375 8.796875 -9.109375 L 2.90625 -9.109375 L 2.90625 -6.140625 L 8.5 -6.140625 C 8.789062 -6.140625 9.007812 -6.050781 9.15625 -5.875 C 9.300781 -5.707031 9.375 -5.515625 9.375 -5.296875 C 9.375 -5.097656 9.300781 -4.914062 9.15625 -4.75 C 9.007812 -4.582031 8.789062 -4.5 8.5 -4.5 L 2.90625 -4.5 L 2.90625 -1.6875 Z M 8.796875 -1.6875 "/></g></g></g><g fill="#1f2b5b" fill-opacity="1"><g transform="translate(162.28536, 199.854865)"><g><path d="M 8.140625 -9.9375 C 8.140625 -10.207031 8.25 -10.410156 8.46875 -10.546875 C 8.6875 -10.691406 8.921875 -10.765625 9.171875 -10.765625 C 9.429688 -10.765625 9.660156 -10.695312 9.859375 -10.5625 C 10.054688 -10.4375 10.15625 -10.226562 10.15625 -9.9375 L 10.15625 -1.015625 C 10.15625 -0.671875 10.035156 -0.414062 9.796875 -0.25 C 9.554688 -0.0820312 9.296875 0 9.015625 0 C 8.828125 0 8.640625 -0.0390625 8.453125 -0.125 C 8.265625 -0.21875 8.113281 -0.335938 8 -0.484375 L 2.84375 -7.140625 L 2.90625 -6.203125 L 2.90625 -0.890625 C 2.90625 -0.578125 2.800781 -0.347656 2.59375 -0.203125 C 2.382812 -0.0664062 2.15625 0 1.90625 0 C 1.644531 0 1.410156 -0.0664062 1.203125 -0.203125 C 0.992188 -0.347656 0.890625 -0.578125 0.890625 -0.890625 L 0.890625 -9.734375 C 0.890625 -10.066406 0.992188 -10.320312 1.203125 -10.5 C 1.410156 -10.675781 1.648438 -10.765625 1.921875 -10.765625 C 2.140625 -10.765625 2.320312 -10.71875 2.46875 -10.625 C 2.625 -10.539062 2.769531 -10.414062 2.90625 -10.25 L 8.203125 -3.359375 L 8.140625 -4.5 Z M 8.140625 -9.9375 "/></g></g></g><g fill="#1f2b5b" fill-opacity="1"><g transform="translate(176.008797, 199.854865)"><g><path d="M 5.90625 -10.921875 C 6.738281 -10.921875 7.507812 -10.796875 8.21875 -10.546875 C 8.9375 -10.304688 9.570312 -9.875 10.125 -9.25 C 10.34375 -9 10.4375 -8.753906 10.40625 -8.515625 C 10.382812 -8.273438 10.28125 -8.082031 10.09375 -7.9375 C 9.90625 -7.789062 9.679688 -7.722656 9.421875 -7.734375 C 9.171875 -7.742188 8.9375 -7.867188 8.71875 -8.109375 C 8.300781 -8.566406 7.859375 -8.863281 7.390625 -9 C 6.921875 -9.132812 6.421875 -9.203125 5.890625 -9.203125 C 5.179688 -9.203125 4.554688 -9.046875 4.015625 -8.734375 C 3.484375 -8.429688 3.066406 -8.003906 2.765625 -7.453125 C 2.472656 -6.898438 2.328125 -6.25 2.328125 -5.5 C 2.328125 -4.71875 2.476562 -4.023438 2.78125 -3.421875 C 3.09375 -2.828125 3.519531 -2.363281 4.0625 -2.03125 C 4.601562 -1.707031 5.242188 -1.546875 5.984375 -1.546875 C 6.503906 -1.546875 7.03125 -1.679688 7.5625 -1.953125 C 8.09375 -2.222656 8.515625 -2.550781 8.828125 -2.9375 C 9.054688 -3.207031 9.300781 -3.363281 9.5625 -3.40625 C 9.832031 -3.445312 10.066406 -3.398438 10.265625 -3.265625 C 10.460938 -3.140625 10.578125 -2.957031 10.609375 -2.71875 C 10.648438 -2.476562 10.570312 -2.210938 10.375 -1.921875 C 10.070312 -1.492188 9.675781 -1.125 9.1875 -0.8125 C 8.707031 -0.5 8.179688 -0.253906 7.609375 -0.078125 C 7.046875 0.0859375 6.492188 0.171875 5.953125 0.171875 C 4.828125 0.171875 3.847656 -0.0625 3.015625 -0.53125 C 2.191406 -1.007812 1.546875 -1.671875 1.078125 -2.515625 C 0.617188 -3.367188 0.390625 -4.363281 0.390625 -5.5 C 0.390625 -6.59375 0.628906 -7.546875 1.109375 -8.359375 C 1.597656 -9.171875 2.257812 -9.800781 3.09375 -10.25 C 3.9375 -10.695312 4.875 -10.921875 5.90625 -10.921875 Z M 5.90625 -10.921875 "/></g></g></g><g fill="#1f2b5b" fill-opacity="1"><g transform="translate(189.327156, 199.854865)"><g><path d="M 0.765625 -9.84375 C 0.765625 -10.15625 0.863281 -10.382812 1.0625 -10.53125 C 1.269531 -10.6875 1.492188 -10.765625 1.734375 -10.765625 C 1.984375 -10.765625 2.210938 -10.6875 2.421875 -10.53125 C 2.628906 -10.382812 2.734375 -10.15625 2.734375 -9.84375 L 2.734375 -0.859375 C 2.734375 -0.578125 2.628906 -0.363281 2.421875 -0.21875 C 2.210938 -0.0703125 1.984375 0 1.734375 0 C 1.492188 0 1.269531 -0.0664062 1.0625 -0.203125 C 0.863281 -0.347656 0.765625 -0.566406 0.765625 -0.859375 Z M 0.765625 -9.84375 "/></g></g></g><g fill="#1f2b5b" fill-opacity="1"><g transform="translate(195.10092, 199.854865)"><g><path d="M 5.515625 -10.921875 C 5.703125 -10.921875 5.875 -10.882812 6.03125 -10.8125 C 6.1875 -10.738281 6.304688 -10.617188 6.390625 -10.453125 L 11.171875 -1.078125 C 11.316406 -0.828125 11.351562 -0.609375 11.28125 -0.421875 C 11.21875 -0.242188 11.085938 -0.101562 10.890625 0 C 10.703125 0.113281 10.5 0.171875 10.28125 0.171875 C 10.125 0.171875 9.960938 0.128906 9.796875 0.046875 C 9.640625 -0.0351562 9.515625 -0.160156 9.421875 -0.328125 L 8.25 -2.671875 L 2.796875 -2.671875 L 1.625 -0.328125 C 1.539062 -0.140625 1.414062 -0.0078125 1.25 0.0625 C 1.09375 0.132812 0.9375 0.171875 0.78125 0.171875 C 0.582031 0.171875 0.390625 0.113281 0.203125 0 C 0.0234375 -0.101562 -0.101562 -0.242188 -0.1875 -0.421875 C -0.28125 -0.609375 -0.273438 -0.8125 -0.171875 -1.03125 L 4.640625 -10.453125 C 4.734375 -10.648438 4.847656 -10.773438 4.984375 -10.828125 C 5.128906 -10.890625 5.304688 -10.921875 5.515625 -10.921875 Z M 5.515625 -8.078125 L 3.625 -4.3125 L 7.421875 -4.3125 Z M 5.515625 -8.078125 "/></g></g></g><g fill="#1f2b5b" fill-opacity="1"><g transform="translate(208.925617, 199.854865)"><g><path d="M 4.984375 -10.765625 C 6.003906 -10.765625 6.894531 -10.535156 7.65625 -10.078125 C 8.425781 -9.628906 9.023438 -9.003906 9.453125 -8.203125 C 9.878906 -7.398438 10.09375 -6.457031 10.09375 -5.375 C 10.09375 -4.300781 9.878906 -3.359375 9.453125 -2.546875 C 9.023438 -1.734375 8.425781 -1.101562 7.65625 -0.65625 C 6.894531 -0.21875 6.003906 0 4.984375 0 L 1.5 0 C 1.195312 0 0.9375 -0.0976562 0.71875 -0.296875 C 0.5 -0.492188 0.390625 -0.726562 0.390625 -1 L 0.390625 -9.78125 C 0.390625 -10.050781 0.5 -10.28125 0.71875 -10.46875 C 0.9375 -10.664062 1.195312 -10.765625 1.5 -10.765625 Z M 4.984375 -1.671875 C 5.609375 -1.671875 6.160156 -1.820312 6.640625 -2.125 C 7.117188 -2.4375 7.488281 -2.867188 7.75 -3.421875 C 8.019531 -3.972656 8.15625 -4.625 8.15625 -5.375 C 8.15625 -6.113281 8.019531 -6.765625 7.75 -7.328125 C 7.488281 -7.890625 7.117188 -8.328125 6.640625 -8.640625 C 6.160156 -8.953125 5.609375 -9.109375 4.984375 -9.109375 L 2.3125 -9.109375 L 2.3125 -1.671875 Z M 4.984375 -1.671875 "/></g></g></g><g fill="#1f2b5b" fill-opacity="1"><g transform="translate(222.075192, 199.854865)"><g><path d="M 11.40625 -5.375 C 11.40625 -4.269531 11.175781 -3.300781 10.71875 -2.46875 C 10.257812 -1.632812 9.617188 -0.984375 8.796875 -0.515625 C 7.972656 -0.0546875 7.007812 0.171875 5.90625 0.171875 C 4.800781 0.171875 3.832031 -0.0546875 3 -0.515625 C 2.164062 -0.984375 1.519531 -1.632812 1.0625 -2.46875 C 0.601562 -3.300781 0.375 -4.269531 0.375 -5.375 C 0.375 -6.488281 0.601562 -7.460938 1.0625 -8.296875 C 1.519531 -9.128906 2.164062 -9.773438 3 -10.234375 C 3.832031 -10.691406 4.800781 -10.921875 5.90625 -10.921875 C 7.007812 -10.921875 7.972656 -10.691406 8.796875 -10.234375 C 9.617188 -9.773438 10.257812 -9.128906 10.71875 -8.296875 C 11.175781 -7.460938 11.40625 -6.488281 11.40625 -5.375 Z M 5.90625 -1.546875 C 6.613281 -1.546875 7.226562 -1.707031 7.75 -2.03125 C 8.28125 -2.351562 8.691406 -2.800781 8.984375 -3.375 C 9.273438 -3.945312 9.421875 -4.613281 9.421875 -5.375 C 9.421875 -6.132812 9.273438 -6.800781 8.984375 -7.375 C 8.691406 -7.957031 8.28125 -8.40625 7.75 -8.71875 C 7.226562 -9.039062 6.613281 -9.203125 5.90625 -9.203125 C 5.195312 -9.203125 4.578125 -9.039062 4.046875 -8.71875 C 3.515625 -8.40625 3.097656 -7.957031 2.796875 -7.375 C 2.503906 -6.800781 2.359375 -6.132812 2.359375 -5.375 C 2.359375 -4.613281 2.503906 -3.945312 2.796875 -3.375 C 3.097656 -2.800781 3.515625 -2.351562 4.046875 -2.03125 C 4.578125 -1.707031 5.195312 -1.546875 5.90625 -1.546875 Z M 5.90625 -1.546875 "/></g></g></g><g fill="#1f2b5b" fill-opacity="1"><g transform="translate(236.710051, 199.854865)"><g><path d="M 9.75 -1.65625 C 10.007812 -1.382812 10.128906 -1.117188 10.109375 -0.859375 C 10.097656 -0.609375 10.003906 -0.398438 9.828125 -0.234375 C 9.648438 -0.078125 9.4375 0 9.1875 0 C 8.945312 0.0078125 8.722656 -0.0976562 8.515625 -0.328125 L 5.484375 -3.546875 L 2.9375 -3.546875 L 2.9375 -0.875 C 2.9375 -0.59375 2.832031 -0.375 2.625 -0.21875 C 2.414062 -0.0703125 2.191406 0 1.953125 0 C 1.710938 0 1.488281 -0.0703125 1.28125 -0.21875 C 1.082031 -0.363281 0.984375 -0.578125 0.984375 -0.859375 L 0.984375 -9.875 C 0.984375 -10.132812 1.070312 -10.347656 1.25 -10.515625 C 1.4375 -10.679688 1.671875 -10.765625 1.953125 -10.765625 L 5.71875 -10.765625 C 6.738281 -10.765625 7.582031 -10.597656 8.25 -10.265625 C 8.925781 -9.941406 9.429688 -9.503906 9.765625 -8.953125 C 10.109375 -8.398438 10.28125 -7.785156 10.28125 -7.109375 C 10.28125 -6.316406 10.066406 -5.625 9.640625 -5.03125 C 9.222656 -4.445312 8.582031 -4.03125 7.71875 -3.78125 Z M 2.9375 -5.1875 L 5.75 -5.1875 C 6.644531 -5.1875 7.300781 -5.375 7.71875 -5.75 C 8.132812 -6.125 8.332031 -6.570312 8.3125 -7.09375 C 8.300781 -7.65625 8.066406 -8.117188 7.609375 -8.484375 C 7.160156 -8.859375 6.539062 -9.046875 5.75 -9.046875 L 2.9375 -9.046875 Z M 2.9375 -5.1875 "/></g></g></g><path stroke-linecap="butt" transform="matrix(0.946717, 0, 0, 0.946717, 58.522654, 197.14821)" fill="none" stroke-linejoin="miter" d="M 24.353086 38.344113 C 23.239038 38.344113 22.376682 38.034655 21.766019 37.41574 C 21.159482 36.788572 20.854151 35.909712 20.854151 34.770908 L 20.854151 14.416843 C 20.854151 13.253282 21.159482 12.36617 21.766019 11.759633 C 22.376682 11.14897 23.239038 10.843638 24.353086 10.843638 C 25.49189 10.843638 26.358372 11.14897 26.95253 11.759633 C 27.554941 12.36617 27.856147 13.253282 27.856147 14.416843 L 27.856147 21.530244 L 38.922354 21.530244 L 38.922354 14.416843 C 38.922354 13.253282 39.219434 12.36617 39.813593 11.759633 C 40.407751 11.14897 41.278359 10.843638 42.42129 10.843638 C 43.535337 10.843638 44.389441 11.14897 44.983599 11.759633 C 45.577758 12.36617 45.874838 13.253282 45.874838 14.416843 L 45.874838 34.770908 C 45.874838 35.909712 45.577758 36.788572 44.983599 37.41574 C 44.389441 38.034655 43.535337 38.344113 42.42129 38.344113 C 41.278359 38.344113 40.407751 38.034655 39.813593 37.41574 C 39.219434 36.788572 38.922354 35.909712 38.922354 34.770908 L 38.922354 27.277905 L 27.856147 27.277905 L 27.856147 34.770908 C 27.856147 35.909712 27.559068 36.788572 26.973161 37.41574 C 26.39138 38.034655 25.516647 38.344113 24.353086 38.344113 Z M 61.574659 38.418383 C 58.863809 38.418383 56.483048 37.840728 54.428249 36.689546 C 52.373449 35.534237 50.776648 33.916805 49.646096 31.845501 C 48.519669 29.765945 47.954393 27.339797 47.954393 24.575308 C 47.954393 22.495752 48.276229 20.605997 48.919901 18.910169 C 49.571826 17.210215 50.496073 15.749574 51.696769 14.5365 C 52.905717 13.3193 54.3416 12.3868 56.016798 11.743128 C 57.691996 11.091204 59.544616 10.769368 61.574659 10.769368 C 64.285508 10.769368 66.666269 11.33877 68.70869 12.485827 C 70.751111 13.624631 72.339661 15.229685 73.478465 17.296863 C 74.617269 19.36404 75.186671 21.790189 75.186671 24.575308 C 75.186671 26.654864 74.860709 28.544619 74.212911 30.248699 C 73.569239 31.944527 72.644992 33.405168 71.436044 34.638873 C 70.235348 35.864325 68.795338 36.80095 67.120141 37.452875 C 65.449069 38.096547 63.600575 38.418383 61.574659 38.418383 Z M 61.574659 32.559317 C 62.919768 32.559317 64.058572 32.241607 64.991072 31.610313 C 65.931823 30.974893 66.658017 30.063025 67.165528 28.874707 C 67.673038 27.678137 67.928857 26.24638 67.928857 24.575308 C 67.928857 22.066638 67.367707 20.119117 66.245407 18.724494 C 65.131359 17.325745 63.575818 16.628434 61.574659 16.628434 C 60.258432 16.628434 59.123754 16.937892 58.170624 17.565059 C 57.22162 18.183975 56.495426 19.083465 55.987915 20.267657 C 55.480405 21.443596 55.224586 22.87948 55.224586 24.575308 C 55.224586 27.088105 55.78161 29.048003 56.895658 30.450878 C 58.009706 31.857879 59.569373 32.559317 61.574659 32.559317 Z M 87.19363 38.418383 C 86.178609 38.418383 85.118201 38.348239 84.016531 38.203825 C 82.914862 38.067664 81.866832 37.861359 80.876567 37.580784 C 79.894555 37.304335 79.007443 36.974247 78.223483 36.590519 C 77.534424 36.260431 77.05167 35.823064 76.775221 35.278418 C 76.494646 34.733773 76.39562 34.160245 76.469889 33.553708 C 76.548285 32.938918 76.766969 32.402525 77.117688 31.936275 C 77.472532 31.4659 77.938782 31.152316 78.520563 30.991398 C 79.106469 30.822228 79.766646 30.90475 80.496966 31.230712 C 81.462474 31.688709 82.551765 32.043554 83.764839 32.299372 C 84.986166 32.551065 86.129096 32.678974 87.19363 32.678974 C 88.868828 32.678974 90.040641 32.456164 90.70907 32.010545 C 91.385751 31.564926 91.724091 31.016154 91.724091 30.360104 C 91.724091 29.770071 91.488903 29.299696 91.018528 28.948977 C 90.548152 28.594132 89.718805 28.292927 88.530488 28.037108 L 84.070171 27.079852 C 81.639896 26.580594 79.824411 25.693482 78.631967 24.426768 C 77.44365 23.155929 76.849491 21.517866 76.849491 19.51258 C 76.849491 18.196353 77.121814 16.999783 77.666459 15.922871 C 78.211105 14.845958 78.982686 13.925837 79.985329 13.162508 C 80.987972 12.403305 82.180416 11.813272 83.56266 11.400662 C 84.940778 10.979799 86.483941 10.769368 88.183895 10.769368 C 89.504248 10.769368 90.841105 10.913782 92.194467 11.202609 C 93.551955 11.495562 94.723768 11.932929 95.714033 12.522962 C 96.295813 12.824167 96.716676 13.24503 96.968368 13.777297 C 97.224186 14.309564 97.323213 14.858336 97.273699 15.427738 C 97.224186 15.99714 97.026133 16.500525 96.679541 16.933766 C 96.3412 17.358754 95.887329 17.643455 95.313801 17.787869 C 94.744398 17.928156 94.067718 17.833256 93.283758 17.499042 C 92.545186 17.17308 91.711713 16.925513 90.78334 16.764595 C 89.863219 16.599551 88.971981 16.517029 88.109625 16.517029 C 87.168874 16.517029 86.36841 16.624308 85.708233 16.838865 C 85.048057 17.049297 84.548799 17.358754 84.202206 17.767238 C 83.859739 18.171597 83.690569 18.637846 83.690569 19.170113 C 83.690569 19.702381 83.913379 20.156252 84.358998 20.527601 C 84.804617 20.890698 85.621585 21.200156 86.809903 21.455974 L 91.220707 22.409104 C 93.68399 22.941371 95.524232 23.820231 96.737306 25.037431 C 97.954506 26.250506 98.56517 27.834929 98.56517 29.78245 C 98.56517 31.102803 98.301099 32.29112 97.768832 33.355655 C 97.236565 34.424315 96.473236 35.327932 95.482971 36.078882 C 94.492706 36.825707 93.300263 37.407487 91.909766 37.815972 C 90.515143 38.216204 88.943098 38.418383 87.19363 38.418383 Z M 103.384458 38.344113 C 102.27041 38.344113 101.408054 38.034655 100.797391 37.41574 C 100.186728 36.788572 99.885523 35.922091 99.885523 34.808043 L 99.885523 14.722175 C 99.885523 13.58337 100.19498 12.712763 100.813896 12.106225 C 101.441063 11.491436 102.307545 11.186105 103.421593 11.186105 L 112.78372 11.186105 C 115.820531 11.186105 118.168284 11.965938 119.826977 13.525605 C 121.493923 15.085272 122.327395 17.234971 122.327395 19.970577 C 122.327395 22.71031 121.493923 24.864135 119.826977 26.423802 C 118.168284 27.983469 115.820531 28.763302 112.78372 28.763302 L 106.887519 28.763302 L 106.887519 34.808043 C 106.887519 35.922091 106.590439 36.788572 106.004533 37.41574 C 105.422752 38.034655 104.548019 38.344113 103.384458 38.344113 Z M 106.887519 23.395243 L 111.566519 23.395243 C 112.882746 23.395243 113.897767 23.110541 114.603331 22.541139 C 115.313021 21.971737 115.667866 21.113508 115.667866 19.970577 C 115.667866 18.807016 115.313021 17.944661 114.603331 17.387637 C 113.897767 16.830613 112.882746 16.554164 111.566519 16.554164 L 106.887519 16.554164 Z M 126.994018 38.344113 C 125.87997 38.344113 125.013488 38.034655 124.402825 37.41574 C 123.796288 36.788572 123.490956 35.909712 123.490956 34.770908 L 123.490956 14.416843 C 123.490956 13.253282 123.796288 12.36617 124.402825 11.759633 C 125.013488 11.14897 125.87997 10.843638 126.994018 10.843638 C 128.132822 10.843638 128.999303 11.14897 129.593462 11.759633 C 130.191747 12.36617 130.492953 13.253282 130.492953 14.416843 L 130.492953 34.770908 C 130.492953 35.909712 130.199999 36.788572 129.609967 37.41574 C 129.028186 38.034655 128.157579 38.344113 126.994018 38.344113 Z M 143.07344 38.344113 C 141.959392 38.344113 141.097037 38.034655 140.486373 37.41574 C 139.87571 36.788572 139.574505 35.922091 139.574505 34.808043 L 139.574505 16.896631 L 133.604034 16.896631 C 132.663283 16.896631 131.945341 16.649065 131.450208 16.153932 C 130.963328 15.6588 130.715762 14.957362 130.715762 14.045494 C 130.715762 13.104742 130.963328 12.390927 131.450208 11.908173 C 131.945341 11.425419 132.663283 11.186105 133.604034 11.186105 L 152.546972 11.186105 C 153.479471 11.186105 154.193287 11.425419 154.688419 11.908173 C 155.183551 12.390927 155.431118 13.104742 155.431118 14.045494 C 155.431118 14.957362 155.183551 15.6588 154.688419 16.153932 C 154.193287 16.649065 153.479471 16.896631 152.546972 16.896631 L 146.576501 16.896631 L 146.576501 34.808043 C 146.576501 35.922091 146.279422 36.788572 145.693515 37.41574 C 145.111735 38.034655 144.237001 38.344113 143.07344 38.344113 Z M 156.904136 38.344113 C 156.120177 38.344113 155.46 38.162564 154.927733 37.795341 C 154.395466 37.423992 154.061252 36.916481 153.933342 36.272809 C 153.809559 35.625011 153.92509 34.894691 154.284061 34.081849 L 163.757593 13.703027 C 164.207338 12.712763 164.768488 11.986569 165.436917 11.528571 C 166.113598 11.070574 166.881053 10.843638 167.747534 10.843638 C 168.60989 10.843638 169.36084 11.070574 170.004513 11.528571 C 170.656437 11.986569 171.221713 12.712763 171.704467 13.703027 L 181.173873 34.081849 C 181.578231 34.894691 181.718518 35.629137 181.602987 36.29344 C 181.491583 36.94949 181.173873 37.457001 180.653984 37.815972 C 180.134095 38.16669 179.494549 38.344113 178.73122 38.344113 C 177.724451 38.344113 176.944617 38.113051 176.39172 37.655054 C 175.847074 37.197056 175.36432 36.466736 174.935205 35.455841 L 172.884532 30.620048 L 175.537616 32.559317 L 159.87493 32.559317 L 162.577528 30.620048 L 160.514476 35.455841 C 160.064731 36.466736 159.598481 37.197056 159.115727 37.655054 C 158.632973 38.113051 157.894401 38.344113 156.904136 38.344113 Z M 167.665012 18.493433 L 163.254208 29.023247 L 162.197926 27.203635 L 173.264134 27.203635 L 172.195473 29.023247 L 167.747534 18.493433 Z M 186.100439 38.001646 C 184.986392 38.001646 184.11991 37.692189 183.492742 37.073273 C 182.873827 36.446106 182.564369 35.575498 182.564369 34.46145 L 182.564369 14.68504 C 182.564369 13.546235 182.869701 12.675628 183.476238 12.069091 C 184.086901 11.454301 184.949257 11.14897 186.063304 11.14897 C 187.202109 11.14897 188.072716 11.454301 188.666875 12.069091 C 189.26516 12.675628 189.566366 13.546235 189.566366 14.68504 L 189.566366 32.179715 L 198.841845 32.179715 C 199.807353 32.179715 200.550051 32.427281 201.06994 32.922414 C 201.589829 33.417546 201.849773 34.135488 201.849773 35.076239 C 201.849773 36.008739 201.589829 36.730807 201.06994 37.238317 C 200.550051 37.745828 199.807353 38.001646 198.841845 38.001646 Z M 203.966464 38.344113 C 203.178379 38.344113 202.518202 38.162564 201.985935 37.795341 C 201.453668 37.423992 201.123579 36.916481 200.99567 36.272809 C 200.871887 35.625011 200.987418 34.894691 201.346389 34.081849 L 210.815795 13.703027 C 211.269666 12.712763 211.830816 11.986569 212.499245 11.528571 C 213.171799 11.070574 213.943381 10.843638 214.809862 10.843638 C 215.672218 10.843638 216.423168 11.070574 217.06684 11.528571 C 217.714639 11.986569 218.284041 12.712763 218.766795 13.703027 L 228.236201 34.081849 C 228.636432 34.894691 228.780846 35.629137 228.661189 36.29344 C 228.549784 36.94949 228.236201 37.457001 227.716312 37.815972 C 227.196423 38.16669 226.556877 38.344113 225.793548 38.344113 C 224.786779 38.344113 224.002819 38.113051 223.454047 37.655054 C 222.909402 37.197056 222.422522 36.466736 221.997533 35.455841 L 219.942734 30.620048 L 222.599944 32.559317 L 206.937258 32.559317 L 209.639855 30.620048 L 207.576804 35.455841 C 207.127059 36.466736 206.656683 37.197056 206.173929 37.655054 C 205.691175 38.113051 204.956729 38.344113 203.966464 38.344113 Z M 214.72734 18.493433 L 210.316536 29.023247 L 209.256128 27.203635 L 220.326462 27.203635 L 219.257801 29.023247 L 214.809862 18.493433 Z M 233.125632 38.344113 C 232.011585 38.344113 231.149229 38.034655 230.53444 37.41574 C 229.927903 36.788572 229.626697 35.922091 229.626697 34.808043 L 229.626697 14.722175 C 229.626697 13.58337 229.936155 12.712763 230.55507 12.106225 C 231.178112 11.491436 232.048719 11.186105 233.162767 11.186105 L 242.520768 11.186105 C 245.561706 11.186105 247.909458 11.928803 249.568152 13.4142 C 251.235097 14.899597 252.06857 16.962648 252.06857 19.599228 C 252.06857 21.295056 251.693095 22.768075 250.942144 24.026536 C 250.195319 25.276745 249.11428 26.238127 247.703153 26.914808 C 246.296152 27.587363 244.571441 27.925703 242.520768 27.925703 L 242.817848 27.24077 L 244.649837 27.24077 C 245.739128 27.24077 246.70051 27.500715 247.533983 28.020604 C 248.379834 28.540493 249.077145 29.332704 249.634169 30.397239 L 251.52805 33.813652 C 251.936535 34.548098 252.130461 35.26604 252.105705 35.967478 C 252.080948 36.664789 251.808625 37.238317 251.288737 37.683936 C 250.768848 38.125429 250.013771 38.344113 249.023506 38.344113 C 248.033241 38.344113 247.224525 38.141934 246.60561 37.741702 C 245.986695 37.333218 245.437923 36.697798 244.955169 35.835442 L 241.493369 29.477118 C 241.188037 28.920094 240.800183 28.536367 240.329808 28.325935 C 239.859432 28.107252 239.323039 27.999973 238.716501 27.999973 L 236.624567 27.999973 L 236.624567 34.808043 C 236.624567 35.922091 236.331614 36.788572 235.745708 37.41574 C 235.163927 38.034655 234.289193 38.344113 233.125632 38.344113 Z M 236.624567 23.052776 L 241.270559 23.052776 C 242.611542 23.052776 243.634816 22.784579 244.34038 22.252312 C 245.054195 21.720045 245.40904 20.89895 245.40904 19.784903 C 245.40904 18.720368 245.054195 17.915778 244.34038 17.371133 C 243.634816 16.826487 242.611542 16.554164 241.270559 16.554164 L 236.624567 16.554164 Z M 236.624567 23.052776 " stroke="#ffffff" stroke-width="9.318893" stroke-opacity="1" stroke-miterlimit="4"/><g fill="#1f2b5b" fill-opacity="1"><g transform="translate(75.962949, 233.123441)"><g><path d="M 5.609375 0.328125 C 4.554688 0.328125 3.738281 0.0351562 3.15625 -0.546875 C 2.582031 -1.140625 2.296875 -1.976562 2.296875 -3.0625 L 2.296875 -22.3125 C 2.296875 -23.414062 2.582031 -24.253906 3.15625 -24.828125 C 3.738281 -25.410156 4.554688 -25.703125 5.609375 -25.703125 C 6.691406 -25.703125 7.515625 -25.410156 8.078125 -24.828125 C 8.640625 -24.253906 8.921875 -23.414062 8.921875 -22.3125 L 8.921875 -15.59375 L 19.40625 -15.59375 L 19.40625 -22.3125 C 19.40625 -23.414062 19.6875 -24.253906 20.25 -24.828125 C 20.8125 -25.410156 21.632812 -25.703125 22.71875 -25.703125 C 23.769531 -25.703125 24.578125 -25.410156 25.140625 -24.828125 C 25.703125 -24.253906 25.984375 -23.414062 25.984375 -22.3125 L 25.984375 -3.0625 C 25.984375 -1.976562 25.703125 -1.140625 25.140625 -0.546875 C 24.578125 0.0351562 23.769531 0.328125 22.71875 0.328125 C 21.632812 0.328125 20.8125 0.0351562 20.25 -0.546875 C 19.6875 -1.140625 19.40625 -1.976562 19.40625 -3.0625 L 19.40625 -10.15625 L 8.921875 -10.15625 L 8.921875 -3.0625 C 8.921875 -1.976562 8.644531 -1.140625 8.09375 -0.546875 C 7.539062 0.0351562 6.710938 0.328125 5.609375 0.328125 Z M 5.609375 0.328125 "/></g></g></g><g fill="#1f2b5b" fill-opacity="1"><g transform="translate(102.270563, 233.123441)"><g><path d="M 14.546875 0.390625 C 11.972656 0.390625 9.710938 -0.148438 7.765625 -1.234375 C 5.828125 -2.328125 4.320312 -3.859375 3.25 -5.828125 C 2.1875 -7.796875 1.65625 -10.085938 1.65625 -12.703125 C 1.65625 -14.671875 1.957031 -16.457031 2.5625 -18.0625 C 3.175781 -19.675781 4.050781 -21.054688 5.1875 -22.203125 C 6.332031 -23.359375 7.695312 -24.242188 9.28125 -24.859375 C 10.863281 -25.472656 12.617188 -25.78125 14.546875 -25.78125 C 17.109375 -25.78125 19.351562 -25.238281 21.28125 -24.15625 C 23.21875 -23.070312 24.726562 -21.550781 25.8125 -19.59375 C 26.894531 -17.644531 27.4375 -15.347656 27.4375 -12.703125 C 27.4375 -10.734375 27.128906 -8.945312 26.515625 -7.34375 C 25.898438 -5.738281 25.019531 -4.351562 23.875 -3.1875 C 22.738281 -2.019531 21.378906 -1.128906 19.796875 -0.515625 C 18.210938 0.0859375 16.460938 0.390625 14.546875 0.390625 Z M 14.546875 -5.140625 C 15.816406 -5.140625 16.894531 -5.441406 17.78125 -6.046875 C 18.664062 -6.648438 19.347656 -7.515625 19.828125 -8.640625 C 20.316406 -9.765625 20.5625 -11.117188 20.5625 -12.703125 C 20.5625 -15.078125 20.03125 -16.925781 18.96875 -18.25 C 17.914062 -19.570312 16.441406 -20.234375 14.546875 -20.234375 C 13.296875 -20.234375 12.21875 -19.9375 11.3125 -19.34375 C 10.414062 -18.757812 9.726562 -17.910156 9.25 -16.796875 C 8.769531 -15.679688 8.53125 -14.316406 8.53125 -12.703125 C 8.53125 -10.328125 9.054688 -8.472656 10.109375 -7.140625 C 11.171875 -5.804688 12.648438 -5.140625 14.546875 -5.140625 Z M 14.546875 -5.140625 "/></g></g></g><g fill="#1f2b5b" fill-opacity="1"><g transform="translate(129.333965, 233.123441)"><g><path d="M 11.734375 0.390625 C 10.773438 0.390625 9.769531 0.320312 8.71875 0.1875 C 7.675781 0.0625 6.6875 -0.128906 5.75 -0.390625 C 4.820312 -0.660156 3.984375 -0.972656 3.234375 -1.328125 C 2.585938 -1.640625 2.128906 -2.050781 1.859375 -2.5625 C 1.597656 -3.082031 1.503906 -3.628906 1.578125 -4.203125 C 1.648438 -4.785156 1.851562 -5.296875 2.1875 -5.734375 C 2.53125 -6.179688 2.976562 -6.484375 3.53125 -6.640625 C 4.082031 -6.796875 4.707031 -6.71875 5.40625 -6.40625 C 6.3125 -5.976562 7.335938 -5.644531 8.484375 -5.40625 C 9.640625 -5.164062 10.722656 -5.046875 11.734375 -5.046875 C 13.316406 -5.046875 14.425781 -5.253906 15.0625 -5.671875 C 15.695312 -6.085938 16.015625 -6.609375 16.015625 -7.234375 C 16.015625 -7.785156 15.789062 -8.226562 15.34375 -8.5625 C 14.90625 -8.90625 14.125 -9.195312 13 -9.4375 L 8.78125 -10.328125 C 6.476562 -10.804688 4.757812 -11.644531 3.625 -12.84375 C 2.5 -14.050781 1.9375 -15.601562 1.9375 -17.5 C 1.9375 -18.75 2.191406 -19.878906 2.703125 -20.890625 C 3.222656 -21.910156 3.957031 -22.78125 4.90625 -23.5 C 5.863281 -24.226562 6.992188 -24.789062 8.296875 -25.1875 C 9.609375 -25.582031 11.066406 -25.78125 12.671875 -25.78125 C 13.921875 -25.78125 15.1875 -25.640625 16.46875 -25.359375 C 17.75 -25.085938 18.859375 -24.675781 19.796875 -24.125 C 20.347656 -23.832031 20.742188 -23.429688 20.984375 -22.921875 C 21.222656 -22.421875 21.316406 -21.898438 21.265625 -21.359375 C 21.222656 -20.828125 21.039062 -20.351562 20.71875 -19.9375 C 20.394531 -19.53125 19.960938 -19.257812 19.421875 -19.125 C 18.878906 -19 18.238281 -19.09375 17.5 -19.40625 C 16.800781 -19.71875 16.015625 -19.953125 15.140625 -20.109375 C 14.265625 -20.265625 13.414062 -20.34375 12.59375 -20.34375 C 11.707031 -20.34375 10.953125 -20.238281 10.328125 -20.03125 C 9.703125 -19.832031 9.226562 -19.539062 8.90625 -19.15625 C 8.582031 -18.769531 8.421875 -18.320312 8.421875 -17.8125 C 8.421875 -17.3125 8.628906 -16.882812 9.046875 -16.53125 C 9.472656 -16.1875 10.25 -15.894531 11.375 -15.65625 L 15.546875 -14.765625 C 17.878906 -14.253906 19.617188 -13.421875 20.765625 -12.265625 C 21.921875 -11.117188 22.5 -9.625 22.5 -7.78125 C 22.5 -6.53125 22.242188 -5.398438 21.734375 -4.390625 C 21.234375 -3.378906 20.515625 -2.519531 19.578125 -1.8125 C 18.648438 -1.101562 17.523438 -0.554688 16.203125 -0.171875 C 14.878906 0.203125 13.390625 0.390625 11.734375 0.390625 Z M 11.734375 0.390625 "/></g></g></g><g fill="#1f2b5b" fill-opacity="1"><g transform="translate(150.782923, 233.123441)"><g><path d="M 5.609375 0.328125 C 4.554688 0.328125 3.738281 0.0351562 3.15625 -0.546875 C 2.582031 -1.140625 2.296875 -1.96875 2.296875 -3.03125 L 2.296875 -22.03125 C 2.296875 -23.113281 2.585938 -23.941406 3.171875 -24.515625 C 3.765625 -25.085938 4.59375 -25.375 5.65625 -25.375 L 14.515625 -25.375 C 17.390625 -25.375 19.613281 -24.632812 21.1875 -23.15625 C 22.757812 -21.6875 23.546875 -19.65625 23.546875 -17.0625 C 23.546875 -14.46875 22.757812 -12.429688 21.1875 -10.953125 C 19.613281 -9.484375 17.390625 -8.75 14.515625 -8.75 L 8.921875 -8.75 L 8.921875 -3.03125 C 8.921875 -1.96875 8.644531 -1.140625 8.09375 -0.546875 C 7.539062 0.0351562 6.710938 0.328125 5.609375 0.328125 Z M 8.921875 -13.828125 L 13.359375 -13.828125 C 14.609375 -13.828125 15.566406 -14.09375 16.234375 -14.625 C 16.910156 -15.164062 17.25 -15.976562 17.25 -17.0625 C 17.25 -18.164062 16.910156 -18.976562 16.234375 -19.5 C 15.566406 -20.03125 14.609375 -20.296875 13.359375 -20.296875 L 8.921875 -20.296875 Z M 8.921875 -13.828125 "/></g></g></g><g fill="#1f2b5b" fill-opacity="1"><g transform="translate(173.131638, 233.123441)"><g><path d="M 5.609375 0.328125 C 4.554688 0.328125 3.738281 0.0351562 3.15625 -0.546875 C 2.582031 -1.140625 2.296875 -1.976562 2.296875 -3.0625 L 2.296875 -22.3125 C 2.296875 -23.414062 2.582031 -24.253906 3.15625 -24.828125 C 3.738281 -25.410156 4.554688 -25.703125 5.609375 -25.703125 C 6.691406 -25.703125 7.515625 -25.410156 8.078125 -24.828125 C 8.640625 -24.253906 8.921875 -23.414062 8.921875 -22.3125 L 8.921875 -3.0625 C 8.921875 -1.976562 8.644531 -1.140625 8.09375 -0.546875 C 7.539062 0.0351562 6.710938 0.328125 5.609375 0.328125 Z M 5.609375 0.328125 "/></g></g></g><g fill="#1f2b5b" fill-opacity="1"><g transform="translate(182.379994, 233.123441)"><g><path d="M 11.59375 0.328125 C 10.539062 0.328125 9.722656 0.0351562 9.140625 -0.546875 C 8.566406 -1.140625 8.28125 -1.96875 8.28125 -3.03125 L 8.28125 -19.984375 L 2.625 -19.984375 C 1.738281 -19.984375 1.0625 -20.21875 0.59375 -20.6875 C 0.125 -21.15625 -0.109375 -21.820312 -0.109375 -22.6875 C -0.109375 -23.570312 0.125 -24.238281 0.59375 -24.6875 C 1.0625 -25.144531 1.738281 -25.375 2.625 -25.375 L 20.5625 -25.375 C 21.445312 -25.375 22.125 -25.144531 22.59375 -24.6875 C 23.0625 -24.238281 23.296875 -23.570312 23.296875 -22.6875 C 23.296875 -21.820312 23.0625 -21.15625 22.59375 -20.6875 C 22.125 -20.21875 21.445312 -19.984375 20.5625 -19.984375 L 14.90625 -19.984375 L 14.90625 -3.03125 C 14.90625 -1.96875 14.628906 -1.140625 14.078125 -0.546875 C 13.523438 0.0351562 12.695312 0.328125 11.59375 0.328125 Z M 11.59375 0.328125 "/></g></g></g><g fill="#1f2b5b" fill-opacity="1"><g transform="translate(203.577029, 233.123441)"><g><path d="M 3.484375 0.328125 C 2.742188 0.328125 2.117188 0.15625 1.609375 -0.1875 C 1.109375 -0.539062 0.796875 -1.023438 0.671875 -1.640625 C 0.554688 -2.253906 0.671875 -2.941406 1.015625 -3.703125 L 9.96875 -23 C 10.40625 -23.9375 10.941406 -24.617188 11.578125 -25.046875 C 12.210938 -25.484375 12.9375 -25.703125 13.75 -25.703125 C 14.5625 -25.703125 15.273438 -25.484375 15.890625 -25.046875 C 16.503906 -24.617188 17.039062 -23.9375 17.5 -23 L 26.453125 -3.703125 C 26.835938 -2.941406 26.976562 -2.25 26.875 -1.625 C 26.769531 -1 26.46875 -0.515625 25.96875 -0.171875 C 25.476562 0.160156 24.875 0.328125 24.15625 0.328125 C 23.195312 0.328125 22.457031 0.113281 21.9375 -0.3125 C 21.425781 -0.75 20.96875 -1.445312 20.5625 -2.40625 L 18.609375 -6.984375 L 21.125 -5.140625 L 6.296875 -5.140625 L 8.859375 -6.984375 L 6.90625 -2.40625 C 6.476562 -1.445312 6.035156 -0.75 5.578125 -0.3125 C 5.117188 0.113281 4.421875 0.328125 3.484375 0.328125 Z M 13.6875 -18.46875 L 9.5 -8.5 L 8.5 -10.21875 L 18.96875 -10.21875 L 17.96875 -8.5 L 13.75 -18.46875 Z M 13.6875 -18.46875 "/></g></g></g><g fill="#1f2b5b" fill-opacity="1"><g transform="translate(229.056875, 233.123441)"><g><path d="M 5.65625 0 C 4.59375 0 3.765625 -0.289062 3.171875 -0.875 C 2.585938 -1.46875 2.296875 -2.289062 2.296875 -3.34375 L 2.296875 -22.0625 C 2.296875 -23.144531 2.582031 -23.972656 3.15625 -24.546875 C 3.738281 -25.128906 4.554688 -25.421875 5.609375 -25.421875 C 6.691406 -25.421875 7.515625 -25.128906 8.078125 -24.546875 C 8.640625 -23.972656 8.921875 -23.144531 8.921875 -22.0625 L 8.921875 -5.515625 L 17.71875 -5.515625 C 18.625 -5.515625 19.320312 -5.28125 19.8125 -4.8125 C 20.3125 -4.34375 20.5625 -3.660156 20.5625 -2.765625 C 20.5625 -1.878906 20.3125 -1.195312 19.8125 -0.71875 C 19.320312 -0.238281 18.625 0 17.71875 0 Z M 5.65625 0 "/></g></g></g><g fill="#1f2b5b" fill-opacity="1"><g transform="translate(248.130508, 233.123441)"><g><path d="M 3.484375 0.328125 C 2.742188 0.328125 2.117188 0.15625 1.609375 -0.1875 C 1.109375 -0.539062 0.796875 -1.023438 0.671875 -1.640625 C 0.554688 -2.253906 0.671875 -2.941406 1.015625 -3.703125 L 9.96875 -23 C 10.40625 -23.9375 10.941406 -24.617188 11.578125 -25.046875 C 12.210938 -25.484375 12.9375 -25.703125 13.75 -25.703125 C 14.5625 -25.703125 15.273438 -25.484375 15.890625 -25.046875 C 16.503906 -24.617188 17.039062 -23.9375 17.5 -23 L 26.453125 -3.703125 C 26.835938 -2.941406 26.976562 -2.25 26.875 -1.625 C 26.769531 -1 26.46875 -0.515625 25.96875 -0.171875 C 25.476562 0.160156 24.875 0.328125 24.15625 0.328125 C 23.195312 0.328125 22.457031 0.113281 21.9375 -0.3125 C 21.425781 -0.75 20.96875 -1.445312 20.5625 -2.40625 L 18.609375 -6.984375 L 21.125 -5.140625 L 6.296875 -5.140625 L 8.859375 -6.984375 L 6.90625 -2.40625 C 6.476562 -1.445312 6.035156 -0.75 5.578125 -0.3125 C 5.117188 0.113281 4.421875 0.328125 3.484375 0.328125 Z M 13.6875 -18.46875 L 9.5 -8.5 L 8.5 -10.21875 L 18.96875 -10.21875 L 17.96875 -8.5 L 13.75 -18.46875 Z M 13.6875 -18.46875 "/></g></g></g><g fill="#1f2b5b" fill-opacity="1"><g transform="translate(273.610354, 233.123441)"><g><path d="M 5.609375 0.328125 C 4.554688 0.328125 3.738281 0.0351562 3.15625 -0.546875 C 2.582031 -1.140625 2.296875 -1.96875 2.296875 -3.03125 L 2.296875 -22.03125 C 2.296875 -23.113281 2.585938 -23.941406 3.171875 -24.515625 C 3.765625 -25.085938 4.59375 -25.375 5.65625 -25.375 L 14.515625 -25.375 C 17.390625 -25.375 19.613281 -24.671875 21.1875 -23.265625 C 22.757812 -21.867188 23.546875 -19.921875 23.546875 -17.421875 C 23.546875 -15.816406 23.191406 -14.421875 22.484375 -13.234375 C 21.773438 -12.046875 20.753906 -11.132812 19.421875 -10.5 C 18.085938 -9.863281 16.453125 -9.546875 14.515625 -9.546875 L 14.796875 -10.1875 L 16.53125 -10.1875 C 17.5625 -10.1875 18.472656 -9.941406 19.265625 -9.453125 C 20.054688 -8.960938 20.710938 -8.210938 21.234375 -7.203125 L 23.046875 -3.953125 C 23.421875 -3.265625 23.597656 -2.585938 23.578125 -1.921875 C 23.554688 -1.265625 23.296875 -0.722656 22.796875 -0.296875 C 22.304688 0.117188 21.59375 0.328125 20.65625 0.328125 C 19.726562 0.328125 18.96875 0.132812 18.375 -0.25 C 17.789062 -0.632812 17.269531 -1.234375 16.8125 -2.046875 L 13.53125 -8.0625 C 13.25 -8.59375 12.882812 -8.957031 12.4375 -9.15625 C 11.988281 -9.363281 11.476562 -9.46875 10.90625 -9.46875 L 8.921875 -9.46875 L 8.921875 -3.03125 C 8.921875 -1.96875 8.644531 -1.140625 8.09375 -0.546875 C 7.539062 0.0351562 6.710938 0.328125 5.609375 0.328125 Z M 8.921875 -14.140625 L 13.3125 -14.140625 C 14.59375 -14.140625 15.566406 -14.390625 16.234375 -14.890625 C 16.910156 -15.398438 17.25 -16.1875 17.25 -17.25 C 17.25 -18.25 16.910156 -19.003906 16.234375 -19.515625 C 15.566406 -20.035156 14.59375 -20.296875 13.3125 -20.296875 L 8.921875 -20.296875 Z M 8.921875 -14.140625 "/></g></g></g></svg>